<svg width="16" height="16" viewBox="0 0 16 16" fill="none" xmlns="http://www.w3.org/2000/svg">
<path fill-rule="evenodd" clip-rule="evenodd" d="M1.36569 0.234315C1.05327 -0.0781049 0.546734 -0.0781049 0.234315 0.234315C-0.0781049 0.546734 -0.0781049 1.05327 0.234315 1.36569L3.83431 4.96569C4.14673 5.2781 4.65327 5.2781 4.96569 4.96569C5.2781 4.65327 5.2781 4.14673 4.96569 3.83431L1.36569 0.234315ZM15.7657 1.36569C16.0781 1.05327 16.0781 0.546734 15.7657 0.234315C15.4533 -0.0781049 14.9467 -0.0781049 14.6343 0.234315L11.0343 3.83431C10.7219 4.14673 10.7219 4.65327 11.0343 4.96569C11.3467 5.2781 11.8533 5.2781 12.1657 4.96569L15.7657 1.36569ZM4.96569 12.1657C5.2781 11.8533 5.2781 11.3467 4.96569 11.0343C4.65327 10.7219 4.14673 10.7219 3.83431 11.0343L0.234315 14.6343C-0.0781049 14.9467 -0.0781049 15.4533 0.234315 15.7657C0.546734 16.0781 1.05327 16.0781 1.36569 15.7657L4.96569 12.1657ZM12.1657 11.0343C11.8533 10.7219 11.3467 10.7219 11.0343 11.0343C10.7219 11.3467 10.7219 11.8533 11.0343 12.1657L14.6343 15.7657C14.9467 16.0781 15.4533 16.0781 15.7657 15.7657C16.0781 15.4533 16.0781 14.9467 15.7657 14.6343L12.1657 11.0343ZM6.79985 8.00002C6.79985 7.33728 7.33711 6.80002 7.99985 6.80002C8.66259 6.80002 9.19985 7.33728 9.19985 8.00002C9.19985 8.66276 8.66259 9.20002 7.99985 9.20002C7.33711 9.20002 6.79985 8.66276 6.79985 8.00002ZM7.99985 5.20002C6.45345 5.20002 5.19985 6.45362 5.19985 8.00002C5.19985 9.54642 6.45345 10.8 7.99985 10.8C9.54625 10.8 10.7999 9.54642 10.7999 8.00002C10.7999 6.45362 9.54625 5.20002 7.99985 5.20002Z" fill="#9772FF"/>
</svg>
