<svg width="25" height="24" viewBox="0 0 25 24" fill="none" xmlns="http://www.w3.org/2000/svg">
<path fill-rule="evenodd" clip-rule="evenodd" d="M12.5 24C5.87225 24 0.5 18.6278 0.5 12C0.5 5.37225 5.87225 0 12.5 0C19.1278 0 24.5 5.37225 24.5 12C24.5 18.6278 19.1278 24 12.5 24ZM17.375 14.3655C17.375 12.4732 16.193 11.4045 13.4277 10.7385V7.4085C14.2827 7.584 15.101 7.95225 15.9012 8.5305L16.9205 6.8835C15.9165 6.14815 14.7373 5.68888 13.5005 5.5515V4.5H11.918V5.51625C9.644 5.69175 8.09825 6.9885 8.09825 8.88075C8.09825 10.8608 9.335 11.8245 11.9908 12.4905V15.9255C10.808 15.75 9.82625 15.2243 8.789 14.418L7.625 16.0125C8.87096 16.9717 10.3555 17.5718 11.918 17.748V19.5H13.5005V17.7653C15.8105 17.5725 17.375 16.293 17.375 14.3655ZM11.99 10.3702C10.5897 9.9675 10.2448 9.49425 10.2448 8.75775C10.2448 7.9875 10.8448 7.374 11.9908 7.28625L11.99 10.3702ZM15.2285 14.4877C15.2285 15.3292 14.5737 15.9075 13.4277 15.9952V12.8235C14.8467 13.227 15.2285 13.6995 15.2285 14.4885V14.4877Z" fill="white"/>
</svg>
