<svg width="20" height="12" viewBox="0 0 20 12" fill="none" xmlns="http://www.w3.org/2000/svg">
<path d="M0.439179 0.954321C0.72047 0.673114 1.10193 0.515141 1.49968 0.515141C1.89742 0.515141 2.27888 0.673114 2.56018 0.954321L9.98516 8.37932L17.4102 0.954321C17.6931 0.681084 18.072 0.529892 18.4653 0.53331C18.8585 0.536727 19.2348 0.69448 19.5129 0.972593C19.791 1.2507 19.9487 1.62692 19.9522 2.02022C19.9556 2.41351 19.8044 2.79242 19.5311 3.07532L11.0457 11.5608C10.7644 11.842 10.3829 12 9.98516 12C9.58742 12 9.20596 11.842 8.92467 11.5608L0.439179 3.07532C0.157973 2.79403 0 2.41257 0 2.01482C0 1.61707 0.157973 1.23561 0.439179 0.954321V0.954321Z" fill="#F5F7FF"/>
</svg>
