<svg width="24" height="24" viewBox="0 0 24 24" fill="none" xmlns="http://www.w3.org/2000/svg">
<path d="M0 2C0 0.89543 0.895431 0 2 0H22C23.1046 0 24 0.895431 24 2V22C24 23.1046 23.1046 24 22 24H2C0.89543 24 0 23.1046 0 22V2Z" fill="#9772FF"/>
<path fill-rule="evenodd" clip-rule="evenodd" d="M11.2517 4C13.1573 4 14.7076 5.55036 14.7076 7.45599V8.18209C14.7076 8.50463 14.4459 8.7664 14.1233 8.7664C13.8008 8.7664 13.539 8.50463 13.539 8.18209V7.45599C13.539 6.19388 12.513 5.16862 11.2517 5.16862H7.45365C6.19388 5.16862 5.16862 6.19388 5.16862 7.45599V16.1263C5.16862 17.3877 6.19388 18.4129 7.45365 18.4129H11.2602C12.5161 18.4129 13.539 17.3908 13.539 16.1349V15.4002C13.539 15.0777 13.8008 14.8159 14.1233 14.8159C14.4459 14.8159 14.7076 15.0777 14.7076 15.4002V16.1349C14.7076 18.0359 13.1604 19.5816 11.2602 19.5816H7.45365C5.54959 19.5816 4 18.032 4 16.1263V7.45599C4 5.55036 5.54959 4 7.45365 4H11.2517ZM17.5467 9.10608L19.8278 11.3771C19.8482 11.3973 19.8664 11.4183 19.8831 11.4405L19.8278 11.3771C19.8554 11.4043 19.88 11.434 19.9013 11.4658C19.9106 11.4801 19.9197 11.495 19.9281 11.5102C19.9349 11.5222 19.9411 11.5346 19.9469 11.5473C19.9518 11.5585 19.9566 11.5697 19.9609 11.581C19.9668 11.5958 19.972 11.6111 19.9765 11.6265C19.9799 11.6386 19.983 11.6507 19.9857 11.663C19.9892 11.6779 19.992 11.6929 19.9941 11.7079C19.9953 11.7178 19.9965 11.728 19.9974 11.7384C19.9992 11.7562 20 11.7734 20 11.7908L19.996 11.8391L19.9944 11.87C19.9943 11.8714 19.9941 11.8727 19.9939 11.874L20 11.7908C20 11.834 19.9952 11.8768 19.9859 11.9185C19.983 11.9308 19.9799 11.9429 19.9764 11.9549C19.972 11.9705 19.9668 11.9857 19.9611 12.0007C19.9566 12.0119 19.9518 12.0231 19.9468 12.0341C19.9411 12.0469 19.9349 12.0594 19.9282 12.0716C19.9197 12.0866 19.9106 12.1014 19.901 12.1158C19.8955 12.1244 19.8895 12.1328 19.8833 12.1411C19.8647 12.1655 19.8445 12.1885 19.8226 12.2097L17.5467 14.4763C17.4329 14.59 17.2834 14.6469 17.1346 14.6469C16.985 14.6469 16.8346 14.59 16.7209 14.4747C16.4934 14.2457 16.4942 13.8764 16.7224 13.6489L18 12.3751H10.0346C9.71204 12.3751 9.45027 12.1133 9.45027 11.7908C9.45027 11.4682 9.71204 11.2065 10.0346 11.2065H18.0016L16.7224 9.93346C16.4942 9.70597 16.4926 9.33668 16.7209 9.10764C16.9484 8.87859 17.3176 8.87859 17.5467 9.10608Z" fill="#F5F7FF"/>
</svg>
