<svg width="48" height="48" viewBox="0 0 48 48" fill="none" xmlns="http://www.w3.org/2000/svg">
<path d="M24 48C37.2548 48 48 37.2548 48 24C48 10.7452 37.2548 0 24 0C10.7452 0 0 10.7452 0 24C0 37.2548 10.7452 48 24 48Z" fill="#0971BD"/>
<path fill-rule="evenodd" clip-rule="evenodd" d="M12.8 17.1753C12.8 17.1753 22.4595 22.6529 24.3344 22.6529C26.2995 22.6529 35.8544 17.2799 35.8544 17.2799L35.8697 16.3199C35.8697 15.2601 35.0096 14.3999 33.9469 14.3999H14.7219C13.6601 14.3999 12.8 15.2601 12.8 16.3199V17.1753ZM35.8544 20.1599C35.8544 20.1599 26.3897 25.2929 24.3344 25.2929C22.4595 25.2929 12.8144 20.1599 12.8153 20.1599L12.8 31.6799C12.8 32.7397 13.6611 33.5999 14.7219 33.5999H33.9469C35.0096 33.5999 35.8697 32.7397 35.8697 31.6799L35.8544 20.1599Z" fill="#F5F7FF"/>
</svg>
