<svg width="17" height="19" viewBox="0 0 17 19" fill="none" xmlns="http://www.w3.org/2000/svg">
<path fill-rule="evenodd" clip-rule="evenodd" d="M11.6185 0.903748C14.3878 0.903748 16.248 2.80014 16.248 5.62227V13.7222C16.248 16.569 14.445 18.4205 11.6546 18.4381L4.87849 18.4408C2.10921 18.4408 0.248047 16.5444 0.248047 13.7222V5.62227C0.248047 2.7746 2.05107 0.924006 4.8415 0.907271L11.6176 0.903748H11.6185ZM11.6185 2.22497L4.8459 2.22849C2.79536 2.24082 1.56927 3.5092 1.56927 5.62227V13.7222C1.56927 15.8494 2.80681 17.1195 4.87761 17.1195L11.6502 17.1169C13.7007 17.1046 14.9268 15.8344 14.9268 13.7222V5.62227C14.9268 3.4951 13.6902 2.22497 11.6185 2.22497ZM11.4486 12.7716C11.8132 12.7716 12.1092 13.0675 12.1092 13.4322C12.1092 13.7968 11.8132 14.0928 11.4486 14.0928H5.08909C4.72444 14.0928 4.42848 13.7968 4.42848 13.4322C4.42848 13.0675 4.72444 12.7716 5.08909 12.7716H11.4486ZM11.4486 9.08405C11.8132 9.08405 12.1092 9.38 12.1092 9.74466C12.1092 10.1093 11.8132 10.4053 11.4486 10.4053H5.08909C4.72444 10.4053 4.42848 10.1093 4.42848 9.74466C4.42848 9.38 4.72444 9.08405 5.08909 9.08405H11.4486ZM7.51547 5.40506C7.88013 5.40506 8.17608 5.70102 8.17608 6.06567C8.17608 6.43033 7.88013 6.72629 7.51547 6.72629H5.08883C4.72417 6.72629 4.42822 6.43033 4.42822 6.06567C4.42822 5.70102 4.72417 5.40506 5.08883 5.40506H7.51547Z" fill="#F5F7FF"/>
</svg>
