<svg width="16" height="16" viewBox="0 0 16 16" fill="none" xmlns="http://www.w3.org/2000/svg">
<path d="M11.728 -4.57764e-05C14.448 -4.57764e-05 16 1.53595 16 4.26395V11.736C16 14.448 14.456 16 11.736 16H4.264C1.536 16 0 14.448 0 11.736V4.26395C0 1.53595 1.536 -4.57764e-05 4.264 -4.57764e-05H11.728ZM7.992 4.40795C7.624 4.40795 7.328 4.70395 7.328 5.07195V7.32795H5.064C4.888 7.32795 4.72 7.39995 4.592 7.51995C4.472 7.64795 4.4 7.81515 4.4 7.99195C4.4 8.35995 4.696 8.65596 5.064 8.66395H7.328V10.928C7.328 11.296 7.624 11.592 7.992 11.592C8.36 11.592 8.656 11.296 8.656 10.928V8.66395H10.928C11.296 8.65596 11.592 8.35995 11.592 7.99195C11.592 7.62395 11.296 7.32795 10.928 7.32795H8.656V5.07195C8.656 4.70395 8.36 4.40795 7.992 4.40795Z" fill="#9772FF"/>
</svg>
