<svg width="6" height="6" viewBox="0 0 6 6" fill="none" xmlns="http://www.w3.org/2000/svg">
<path fill-rule="evenodd" clip-rule="evenodd" d="M1.10455 0.781241C1.01529 0.691979 0.870565 0.691979 0.781302 0.781241C0.69204 0.870504 0.69204 1.01523 0.781302 1.10449L1.80987 2.13306C1.89914 2.22232 2.04386 2.22232 2.13312 2.13306C2.22239 2.0438 2.22239 1.89908 2.13312 1.80981L1.10455 0.781241ZM5.21884 1.10449C5.3081 1.01523 5.3081 0.870504 5.21884 0.781241C5.12957 0.691979 4.98485 0.691979 4.89559 0.781241L3.86702 1.80981C3.77775 1.89908 3.77775 2.0438 3.86702 2.13306C3.95628 2.22232 4.101 2.22232 4.19027 2.13306L5.21884 1.10449ZM2.13312 4.1902C2.22239 4.10094 2.22239 3.95622 2.13312 3.86696C2.04386 3.77769 1.89914 3.77769 1.80987 3.86696L0.781302 4.89553C0.69204 4.98479 0.69204 5.12951 0.781302 5.21878C0.870565 5.30804 1.01529 5.30804 1.10455 5.21878L2.13312 4.1902ZM4.19027 3.86696C4.101 3.77769 3.95628 3.77769 3.86702 3.86696C3.77775 3.95622 3.77775 4.10094 3.86702 4.1902L4.89559 5.21878C4.98485 5.30804 5.12957 5.30804 5.21884 5.21878C5.3081 5.12951 5.3081 4.98479 5.21884 4.89553L4.19027 3.86696ZM2.65718 2.99999C2.65718 2.81064 2.81068 2.65714 3.00003 2.65714C3.18939 2.65714 3.34289 2.81064 3.34289 2.99999C3.34289 3.18935 3.18939 3.34285 3.00003 3.34285C2.81068 3.34285 2.65718 3.18935 2.65718 2.99999ZM3.00003 2.19999C2.5582 2.19999 2.20003 2.55817 2.20003 2.99999C2.20003 3.44182 2.5582 3.8 3.00003 3.8C3.44186 3.8 3.80003 3.44182 3.80003 2.99999C3.80003 2.55817 3.44186 2.19999 3.00003 2.19999Z" fill="#9772FF"/>
</svg>
