<svg width="20" height="18" viewBox="0 0 20 18" fill="none" xmlns="http://www.w3.org/2000/svg">
<path d="M11 17L18.8393 9.37689C18.8902 9.32742 18.9307 9.26867 18.9582 9.204C18.9858 9.13933 19 9.07001 19 9C19 8.92999 18.9858 8.86067 18.9582 8.796C18.9307 8.73133 18.8902 8.67258 18.8393 8.62311L11 1" stroke="#DEE4FF" stroke-width="2" stroke-linecap="round" stroke-linejoin="round"/>
<path d="M1 17L8.8393 9.37689C8.89024 9.32742 8.93066 9.26867 8.95823 9.204C8.98581 9.13933 9 9.07001 9 9C9 8.92999 8.98581 8.86067 8.95823 8.796C8.93066 8.73133 8.89024 8.67258 8.8393 8.62311L1 1" stroke="#DEE4FF" stroke-width="2" stroke-linecap="round" stroke-linejoin="round"/>
</svg>
