<svg width="16" height="18" viewBox="0 0 16 18" fill="none" xmlns="http://www.w3.org/2000/svg">
<path fill-rule="evenodd" clip-rule="evenodd" d="M8.5184 0C9.11244 0 9.68988 0.243921 10.1039 0.667878C10.5171 1.09432 10.7452 1.67924 10.7278 2.27244C10.7295 2.40602 10.7734 2.56034 10.8531 2.69557C10.985 2.91958 11.1932 3.07721 11.4405 3.14193C11.6877 3.20332 11.9466 3.17014 12.1664 3.03988C13.2284 2.4334 14.5799 2.79679 15.1864 3.85046L15.7033 4.74567C15.7165 4.76973 15.7282 4.79296 15.7381 4.81702C16.2874 5.85492 15.9206 7.16164 14.9002 7.75817C14.7516 7.84362 14.6313 7.96309 14.5484 8.10745C14.4198 8.33063 14.3841 8.59612 14.4488 8.84005C14.5152 9.08894 14.6737 9.29553 14.8968 9.4233C15.4004 9.71285 15.7763 10.2007 15.9265 10.764C16.0766 11.3265 15.9945 11.9372 15.7016 12.4408L15.1507 13.3584C14.5442 14.4004 13.1927 14.7613 12.1415 14.154C12.0013 14.0736 11.8395 14.0296 11.6786 14.0254H11.6736C11.4338 14.0254 11.1874 14.1275 11.0082 14.3059C10.8265 14.4876 10.727 14.7298 10.7286 14.987C10.7228 16.2058 9.73137 17.1914 8.5184 17.1914H7.47884C6.26006 17.1914 5.26862 16.2008 5.26862 14.982C5.26696 14.8319 5.22382 14.6759 5.14334 14.5407C5.01308 14.3133 4.80235 14.1507 4.55926 14.086C4.31782 14.0213 4.05316 14.057 3.83579 14.1831C3.31476 14.4734 2.70164 14.544 2.14079 14.3863C1.58077 14.2279 1.09708 13.8429 0.813334 13.3327L0.294795 12.4391C-0.311687 11.3871 0.0492153 10.0389 1.09957 9.43159C1.39742 9.25985 1.58243 8.9396 1.58243 8.59612C1.58243 8.25264 1.39742 7.93157 1.09957 7.75983C0.0483857 7.1492 -0.311687 5.79768 0.293966 4.74567L0.856476 3.82225C1.45466 2.78186 2.80701 2.41515 3.86151 3.0208C4.00504 3.10625 4.16102 3.1494 4.31948 3.15106C4.83636 3.15106 5.26862 2.72461 5.27691 2.20026C5.27359 1.62199 5.50175 1.06694 5.91741 0.647966C6.33473 0.229816 6.88895 0 7.47884 0H8.5184ZM8.5184 1.24449H7.47884C7.22164 1.24449 6.98104 1.34488 6.79934 1.52575C6.61848 1.70744 6.51975 1.94888 6.52141 2.20607C6.50398 3.41904 5.51254 4.39555 4.31202 4.39555C3.92705 4.3914 3.5562 4.28769 3.23429 4.09521C2.78212 3.83801 2.1914 3.99648 1.92674 4.45694L1.36506 5.38036C1.10786 5.82671 1.2655 6.4166 1.72347 6.68292C2.40297 7.07618 2.82692 7.80961 2.82692 8.59612C2.82692 9.38264 2.40297 10.1152 1.72181 10.5093C1.26633 10.7732 1.10869 11.3597 1.37253 11.816L1.89604 12.7187C2.02547 12.9518 2.23703 13.1203 2.48178 13.1891C2.7257 13.2572 2.99451 13.2281 3.21852 13.1037C3.5479 12.9104 3.9312 12.81 4.31616 12.81C4.50616 12.81 4.69615 12.834 4.88199 12.8838C5.44285 13.0348 5.92986 13.4098 6.21858 13.9134C6.40608 14.2295 6.50979 14.5987 6.51311 14.9754C6.51311 15.5147 6.94619 15.9469 7.47884 15.9469H8.5184C9.04856 15.9469 9.48164 15.5172 9.48413 14.987C9.48081 14.4013 9.7098 13.8446 10.1288 13.4256C10.5419 13.0124 11.1194 12.7643 11.6968 12.7809C12.0752 12.7901 12.4394 12.8921 12.7605 13.0746C13.2226 13.3393 13.8125 13.1817 14.0796 12.7254L14.6305 11.8069C14.7533 11.5954 14.789 11.3299 14.7234 11.0851C14.6587 10.8404 14.4961 10.628 14.2771 10.5027C13.7644 10.2073 13.3985 9.7311 13.2466 9.16029C13.0965 8.60027 13.1786 7.98881 13.4715 7.48521C13.6623 7.15334 13.9419 6.87375 14.2771 6.68127C14.7268 6.41826 14.8844 5.83003 14.6231 5.37206C14.6123 5.35381 14.6023 5.33472 14.594 5.31481L14.1078 4.47188C13.8432 4.01141 13.2541 3.85295 12.792 4.11595C12.2925 4.41131 11.6985 4.49594 11.1277 4.34577C10.5577 4.19809 10.0798 3.83718 9.78198 3.32777C9.59116 3.00918 9.48745 2.63832 9.48413 2.26083C9.4916 1.97708 9.39204 1.72238 9.21117 1.5357C9.03113 1.34986 8.77809 1.24449 8.5184 1.24449ZM8.00227 5.78614C9.55125 5.78614 10.8115 7.04723 10.8115 8.59621C10.8115 10.1452 9.55125 11.4046 8.00227 11.4046C6.45329 11.4046 5.19303 10.1452 5.19303 8.59621C5.19303 7.04723 6.45329 5.78614 8.00227 5.78614ZM8.00227 7.03064C7.13942 7.03064 6.43753 7.73336 6.43753 8.59621C6.43753 9.45906 7.13942 10.1601 8.00227 10.1601C8.86512 10.1601 9.56701 9.45906 9.56701 8.59621C9.56701 7.73336 8.86512 7.03064 8.00227 7.03064Z" fill="#F5F7FF"/>
</svg>
