<svg width="20" height="12" viewBox="0 0 20 12" fill="none" xmlns="http://www.w3.org/2000/svg">
<path d="M0.439179 11.0457C0.72047 11.3269 1.10193 11.4849 1.49968 11.4849C1.89742 11.4849 2.27888 11.3269 2.56018 11.0457L9.98516 3.62068L17.4102 11.0457C17.6931 11.3189 18.072 11.4701 18.4653 11.4667C18.8585 11.4633 19.2348 11.3055 19.5129 11.0274C19.791 10.7493 19.9487 10.3731 19.9522 9.97978C19.9556 9.58649 19.8044 9.20758 19.5312 8.92468L11.0457 0.43918C10.7644 0.157973 10.3829 0 9.98516 0C9.58742 0 9.20596 0.157973 8.92467 0.43918L0.439179 8.92468C0.157973 9.20597 0 9.58743 0 9.98518C0 10.3829 0.157973 10.7644 0.439179 11.0457Z" fill="#9772FF"/>
</svg>
