<svg width="40" height="40" viewBox="0 0 40 40" fill="none" xmlns="http://www.w3.org/2000/svg">
<rect width="40" height="40" rx="2" fill="#9772FF"/>
<path d="M16.7722 19.6263C15.0592 19.6339 13.4118 20.2927 12.1571 21.472C10.9025 22.6512 10.1324 24.2645 10 25.9914C12.707 28.5663 16.2835 30 20 30C23.7165 30 27.293 28.5663 30 25.9914C29.8675 24.2636 29.0968 22.6496 27.841 21.4702C26.5853 20.2909 24.9366 19.6326 23.2228 19.6263H22.6953V18.9761L23.1977 18.6154C23.928 18.078 24.4714 17.3208 24.7502 16.4522C25.029 15.5836 25.029 14.648 24.7501 13.7794L24.4938 12.987C24.2149 12.119 23.6715 11.3626 22.9414 10.8261C22.2113 10.2895 21.3321 10.0004 20.4295 10H19.6006C18.6972 9.99929 17.8168 10.288 17.0857 10.8246C16.3546 11.3612 15.8105 12.1182 15.5313 12.987L15.2751 13.7794C14.9951 14.6484 14.995 15.5848 15.2749 16.4539C15.5547 17.3229 16.1001 18.0797 16.8324 18.6154L17.3348 18.9761V19.6263H16.7722Z" stroke="#F5F7FF" stroke-width="2" stroke-linecap="round" stroke-linejoin="round"/>
</svg>
